<svg class="svg-icon" style="width: 1em;height: 1em;vertical-align: middle;fill: currentColor;overflow: hidden;" viewBox="0 0 1024 1024" version="1.1" xmlns="http://www.w3.org/2000/svg"><path d="M949.375818 504.31979a132.991945 132.991945 0 0 0-99.327959-128.426613L977.535806 0H345.770736L473.600016 377.087843a132.949278 132.949278 0 0 0-95.74396 127.487947 133.119945 133.119945 0 0 0 56.02131 108.202621 353.237186 353.237186 0 0 1-46.250648 53.077312 347.306522 347.306522 0 0 1-108.799954 70.27197c-35.583985-24.021323-50.986645-66.389306-37.077318-104.362623a132.693278 132.693278 0 0 0-38.826651-259.413225 132.991945 132.991945 0 0 0-132.821278 132.821278c0 36.181318 14.805327 69.375971 38.527984 93.098628-2.047999 4.138665-4.138665 8.319997-6.22933 12.757328-19.839992 40.917316-42.367982 87.167964-50.986646 139.050608-17.19466 103.76529 10.965329 187.050589 78.890634 234.197236A217.301243 217.301243 0 0 0 255.95744 1023.999573c77.951968 0 157.098601-39.125317 233.599903-77.098634 54.570644-26.965322 110.89062-55.12531 166.314597-68.778638 20.479991-5.034665 41.813316-7.978663 64.341307-11.263996 45.653314-6.527997 92.799961-13.311994 135.167943-37.973317a191.23192 191.23192 0 0 0 93.098628-131.882612c7.423997-42.410649 0-85.077298-18.943992-122.453282 12.714661-20.479991 19.839992-44.458648 19.839992-70.271971z m-57.813309 0c0 41.173316-33.493319 74.666636-74.666636 74.666635a74.794636 74.794636 0 0 1-46.293314-133.375944l0.298666-0.298667c2.389332-1.791999 5.034665-3.583999 7.679997-5.333331 0 0 0.341333 0 0.341333-0.298666 1.194666-0.597333 2.346666-1.493333 3.541332-2.133333 0.298667 0 0.597333-0.256 0.896-0.256 1.194666-0.597333 2.687999-1.194666 4.138665-1.791999 1.493333-0.597333 2.986665-1.152 4.181331-1.749332 0.298667 0 0.554666-0.298667 0.853333-0.298667 1.194666-0.298667 2.389332-0.896 3.583999-1.194666 0.298667 0 0.853333-0.298667 1.194666-0.298667 1.450666-0.298667 2.645332-0.597333 4.138665-0.853333h0.298667l4.437331-0.938666c0.298667 0 0.853333 0 1.194666-0.298666 1.194666 0 2.346666-0.298667 3.541332-0.298667h1.493333c1.493333 0 2.986665-0.298667 4.735998-0.298667h3.839998c1.194666 0 2.133332 0 3.285332 0.298667h0.597333c2.346666 0.298667 4.735998 0.597333 7.125331 1.194666a75.349302 75.349302 0 0 1 59.562642 73.514636zM428.501368 59.306642h466.346472l-107.050622 315.733202c-4.437331 0.853333-8.874663 2.346666-13.311994 3.839998l-112.639953-229.759904-112.981286 228.266571c-4.437331-1.450666-9.215996-2.346666-13.951995-3.242665l-106.410622-314.879869z m211.967912 419.199825a131.541279 131.541279 0 0 0-40.021317-71.16797l61.354641-123.903948 61.951974 126.591947c-18.346659 18.346659-31.70132 41.813316-37.034651 68.479971H640.426613z m-148.522605-46.84798c1.450666-0.298667 2.645332-0.597333 4.138665-0.853333h0.853333c1.237333-0.341333 2.389332-0.341333 3.583998-0.64h1.194667c1.194666 0 2.090666-0.298667 3.242665-0.298666h11.562662c1.194666 0 2.090666 0.298667 2.986665 0.298666 0.597333 0 0.853333 0 1.493333 0.298667 1.152 0.298667 2.047999 0.298667 3.242665 0.597333 0.298667 0 0.597333 0 1.194666 0.298666l4.138665 0.853333h0.298667c1.194666 0.341333 2.389332 0.64 3.541332 1.237333 0.298667 0 0.597333 0.298667 1.194666 0.298667 0.896 0.298667 2.090666 0.597333 2.986665 1.151999 0.298667 0 0.597333 0.298667 0.853333 0.298667 1.194666 0.597333 2.389332 0.896 3.583999 1.493332h0.298666a15.957327 15.957327 0 0 1 3.839999 2.090666h0.298666c1.194666 0.597333 2.389332 1.450666 3.583999 2.047999 0.298667 0 0.298667 0.298667 0.554666 0.298667 1.194666 0.597333 2.133332 1.493333 3.285332 2.090666l0.298667 0.298666c3.541332 2.645332 6.826664 5.631998 10.069329 8.575997l0.298666 0.298666a74.538636 74.538636 0 0 1 20.479992 51.583979 74.751969 74.751969 0 0 1-149.418605 0 74.325302 74.325302 0 0 1 56.319977-72.31997z m-291.754545-2.090666c41.215983 0 74.709302 33.535986 74.709302 74.709302s-33.493319 74.709302-74.666635 74.709302-74.751969-33.493319-74.751969-74.666635 33.535986-74.751969 74.709302-74.751969z m689.621046 257.06656a130.986612 130.986612 0 0 1-64.341307 91.007962c-32.34132 18.687992-72.06397 24.618656-113.877285 30.54932a737.706359 737.706359 0 0 0-69.973305 12.415995c-61.653308 15.14666-120.917283 44.799981-178.431925 73.258636-73.557303 36.437318-142.933274 70.826637-207.231914 70.826637a155.519935 155.519935 0 0 1-91.903962-29.354654c-65.237306-45.055981-61.994641-129.535946-54.271977-175.786593 7.12533-43.306649 26.965322-83.882632 45.951981-122.751949 1.194666-2.346666 2.090666-4.437331 3.285332-6.826664 6.485331 2.389332 13.311994 4.181332 20.437325 5.375998-11.263995 62.847974 20.735991 127.743947 83.029298 159.7866l11.263996 5.930664 12.117328-4.437332c51.882645-18.389326 99.925292-48.341313 142.335941-88.362629a398.250501 398.250501 0 0 0 61.653307-73.21597c6.826664 1.152 13.653328 1.450666 20.479992 1.450666a132.991945 132.991945 0 0 0 128.34128-99.285292h49.791979a132.650611 132.650611 0 0 0 128.426613 99.285292c24.57599 0 47.35998-6.826664 66.986639-18.346659 7.679997 22.186657 10.069329 45.354648 5.930664 68.479972z"  /></svg>